<svg width="27" height="21" viewBox="0 0 27 21" fill="none" xmlns="http://www.w3.org/2000/svg">
<path fill-rule="evenodd" clip-rule="evenodd" d="M13.5005 13.1463L13.634 13.1463L13.9326 13.1473C16.2145 13.1623 21.4294 13.3929 21.4294 16.9275C21.4294 20.4389 16.3963 20.6679 13.9681 20.6828L13.0685 20.6828C10.7864 20.6678 5.57049 20.4376 5.57049 16.9074C5.57049 13.3916 10.7864 13.1623 13.0685 13.1473L13.3671 13.1463C13.4134 13.1463 13.4579 13.1463 13.5005 13.1463ZM13.5005 14.9193C10.6921 14.9193 7.3435 15.2644 7.3435 16.9074C7.3435 18.5132 10.4922 18.8886 13.2438 18.9099L13.5005 18.9109C16.309 18.9109 19.6564 18.5669 19.6564 16.9275C19.6564 15.268 16.309 14.9193 13.5005 14.9193ZM22.9017 12.6666C25.7657 13.0957 26.3673 14.4408 26.3673 15.494C26.3673 16.137 26.1144 17.3107 24.4241 17.9549C24.3201 17.9939 24.2137 18.0128 24.1085 18.0128C23.7516 18.0128 23.4147 17.7953 23.2799 17.4419C23.105 16.9845 23.3355 16.4715 23.7929 16.2977C24.5943 15.9928 24.5943 15.6559 24.5943 15.494C24.5943 14.9762 23.936 14.6145 22.6381 14.4207C22.1547 14.3474 21.8202 13.8971 21.8923 13.4113C21.9644 12.9266 22.4135 12.604 22.9017 12.6666ZM5.10762 13.4113C5.17973 13.8971 4.84522 14.3474 4.36178 14.4207C3.06394 14.6145 2.40557 14.9762 2.40557 15.494C2.40557 15.6559 2.40557 15.9916 3.20815 16.2977C3.66558 16.4715 3.89607 16.9845 3.72114 17.4419C3.58639 17.7953 3.24952 18.0128 2.89255 18.0128C2.78736 18.0128 2.68098 17.9939 2.57696 17.9549C0.885516 17.3095 0.632568 16.1358 0.632568 15.494C0.632568 14.442 1.23421 13.0957 4.09938 12.6666C4.58754 12.6051 5.03434 12.9266 5.10762 13.4113ZM13.5005 0.836914C16.4792 0.836914 18.9011 3.26001 18.9011 6.23747C18.9011 9.21493 16.4792 11.638 13.5005 11.638H13.4686C12.0266 11.6333 10.6756 11.0683 9.66376 10.0471C8.64961 9.02699 8.09525 7.67242 8.10111 6.23393C8.10111 3.26001 10.5231 0.836914 13.5005 0.836914ZM13.5005 2.60991C11.5006 2.60991 9.87413 4.23753 9.87413 6.23747C9.87061 7.20671 10.2418 8.11331 10.9214 8.79768C11.6011 9.48206 12.5065 9.86148 13.471 9.86503L13.5005 10.7515V9.86503C15.5005 9.86503 17.1281 8.2386 17.1281 6.23747C17.1281 4.23753 15.5005 2.60991 13.5005 2.60991ZM20.8159 1.99468C22.8939 2.33628 24.4033 4.11401 24.4033 6.22152C24.3986 8.34321 22.8135 10.1635 20.7155 10.4578C20.6741 10.4637 20.6327 10.4661 20.5925 10.4661C20.1576 10.4661 19.7781 10.1458 19.7155 9.70251C19.6481 9.2167 19.985 8.76873 20.4708 8.70135C21.7001 8.52878 22.6279 7.46262 22.6303 6.21915C22.6303 4.98633 21.7462 3.9438 20.5275 3.74404C20.0453 3.66485 19.7179 3.2086 19.7971 2.72516C19.8774 2.24172 20.3301 1.91785 20.8159 1.99468ZM7.20402 2.72516C7.28321 3.2086 6.9558 3.66485 6.47354 3.74404C5.2549 3.9438 4.37076 4.98633 4.37076 6.22152C4.37313 7.46262 5.301 8.52996 6.5291 8.70135C7.0149 8.76873 7.35177 9.2167 7.2844 9.70251C7.22175 10.1458 6.84233 10.4661 6.40735 10.4661C6.36716 10.4661 6.32579 10.4637 6.28442 10.4578C4.18637 10.1635 2.60249 8.3432 2.59776 6.22388C2.59776 4.11401 4.10718 2.33628 6.18513 1.99468C6.68276 1.91667 7.12364 2.24409 7.20402 2.72516Z" fill="#9CA3AF"/>
</svg>
