<svg width="21" height="21" viewBox="0 0 21 21" fill="none" xmlns="http://www.w3.org/2000/svg">
<path fill-rule="evenodd" clip-rule="evenodd" d="M10.5017 0.263672C13.2405 0.263672 15.8144 1.3285 17.7477 3.26274C21.7439 7.25895 21.7439 13.7604 17.7477 17.7566C15.7887 19.7166 13.1509 20.7538 10.4788 20.7538C9.02217 20.7538 7.556 20.4459 6.18421 19.811C5.78001 19.6489 5.40155 19.4964 5.12986 19.4964C4.81718 19.4983 4.39678 19.6432 3.99068 19.7833C3.1575 20.0693 2.12031 20.4259 1.35291 19.6613C0.588366 18.8958 0.941085 17.8615 1.22517 17.0293C1.3653 16.6193 1.50925 16.1961 1.50925 15.8758C1.50925 15.6127 1.38246 15.2771 1.18799 14.7938C-0.597533 10.9377 0.22802 6.2904 3.25664 3.26369C5.18992 1.32946 7.76286 0.263672 10.5017 0.263672ZM10.5026 1.69361C8.14514 1.69361 5.93063 2.61068 4.26713 4.27514C1.66082 6.87954 0.951571 10.8786 2.50068 14.2275C2.72375 14.7795 2.93919 15.3171 2.93919 15.8758C2.93919 16.4335 2.74758 16.9949 2.57885 17.4907C2.43966 17.8987 2.22899 18.5145 2.36435 18.6499C2.49686 18.7871 3.1165 18.5707 3.52547 18.4306C4.01641 18.2628 4.57314 18.0703 5.1251 18.0665C5.67801 18.0665 6.19946 18.2762 6.75142 18.4983C10.1328 20.0617 14.1318 19.3505 16.7372 16.7461C20.1748 13.3067 20.1748 7.71176 16.7372 4.27418C15.0727 2.60973 12.8592 1.69361 10.5026 1.69361ZM14.2652 9.95172C14.7914 9.95172 15.2185 10.3778 15.2185 10.905C15.2185 11.4322 14.7914 11.8583 14.2652 11.8583C13.739 11.8583 13.3081 11.4322 13.3081 10.905C13.3081 10.3778 13.7304 9.95172 14.2566 9.95172H14.2652ZM10.4436 9.95172C10.9698 9.95172 11.3969 10.3778 11.3969 10.905C11.3969 11.4322 10.9698 11.8583 10.4436 11.8583C9.91741 11.8583 9.48652 11.4322 9.48652 10.905C9.48652 10.3778 9.90787 9.95172 10.435 9.95172H10.4436ZM6.62167 9.95172C7.14789 9.95172 7.57497 10.3778 7.57497 10.905C7.57497 11.4322 7.14789 11.8583 6.62167 11.8583C6.09546 11.8583 5.66457 11.4322 5.66457 10.905C5.66457 10.3778 6.08688 9.95172 6.61309 9.95172H6.62167Z" fill="#761022"/>
</svg>
