<svg width="20" height="20" viewBox="0 0 20 20" fill="none" xmlns="http://www.w3.org/2000/svg">
<path fill-rule="evenodd" clip-rule="evenodd" d="M10.0528 2.43409C10.5439 1.94293 11.2101 1.66699 11.9047 1.66699C12.5993 1.66699 13.2655 1.94293 13.7567 2.43409C14.0755 2.75293 14.3037 3.14552 14.4245 3.57175H17.619C18.0135 3.57175 18.3333 3.89155 18.3333 4.28604C18.3333 4.68053 18.0135 5.00033 17.619 5.00033H14.4245C14.3037 5.42656 14.0755 5.81915 13.7567 6.13799C13.2655 6.62915 12.5993 6.90509 11.9047 6.90509C11.2101 6.90509 10.5439 6.62915 10.0528 6.13799C9.73394 5.81915 9.50579 5.42656 9.38495 5.00033H2.38091C1.98642 5.00033 1.66663 4.68053 1.66663 4.28604C1.66663 3.89155 1.98642 3.57175 2.38091 3.57175H9.38495C9.50579 3.14552 9.73394 2.75293 10.0528 2.43409ZM11.9047 3.09556C11.589 3.09556 11.2862 3.22099 11.0629 3.44425C10.8397 3.6675 10.7142 3.97031 10.7142 4.28604C10.7142 4.60177 10.8397 4.90458 11.0629 5.12783C11.2862 5.35109 11.589 5.47652 11.9047 5.47652C12.2205 5.47652 12.5233 5.35109 12.7465 5.12783C12.9698 4.90458 13.0952 4.60177 13.0952 4.28604C13.0952 3.97031 12.9698 3.6675 12.7465 3.44425C12.5233 3.22099 12.2205 3.09556 11.9047 3.09556ZM4.33849 8.14838C4.82966 7.65721 5.49582 7.38128 6.19044 7.38128C6.88505 7.38128 7.55122 7.65721 8.04238 8.14838C8.36122 8.46722 8.58936 8.8598 8.7102 9.28604H17.619C18.0135 9.28604 18.3333 9.60584 18.3333 10.0003C18.3333 10.3948 18.0135 10.7146 17.619 10.7146H8.7102C8.58936 11.1409 8.36122 11.5334 8.04238 11.8523C7.55122 12.3434 6.88505 12.6194 6.19044 12.6194C5.49582 12.6194 4.82966 12.3434 4.33849 11.8523C4.01965 11.5334 3.79151 11.1409 3.67067 10.7146H2.38091C1.98642 10.7146 1.66663 10.3948 1.66663 10.0003C1.66663 9.60584 1.98642 9.28604 2.38091 9.28604H3.67067C3.79151 8.8598 4.01965 8.46722 4.33849 8.14838ZM6.19044 8.80985C5.8747 8.80985 5.5719 8.93527 5.34864 9.15853C5.12538 9.38179 4.99996 9.68459 4.99996 10.0003C4.99996 10.3161 5.12538 10.6189 5.34864 10.8421C5.5719 11.0654 5.8747 11.1908 6.19044 11.1908C6.50617 11.1908 6.80897 11.0654 7.03223 10.8421C7.25549 10.6189 7.38091 10.3161 7.38091 10.0003C7.38091 9.68459 7.25549 9.38179 7.03223 9.15853C6.80897 8.93527 6.50617 8.80985 6.19044 8.80985ZM12.9099 13.8627C13.4011 13.3715 14.0672 13.0956 14.7619 13.0956C15.4565 13.0956 16.1226 13.3715 16.6138 13.8627C16.9327 14.1815 17.1608 14.5741 17.2816 15.0003H17.619C18.0135 15.0003 18.3333 15.3201 18.3333 15.7146C18.3333 16.1091 18.0135 16.4289 17.619 16.4289H17.2816C17.1608 16.8551 16.9327 17.2477 16.6138 17.5666C16.1226 18.0577 15.4565 18.3337 14.7619 18.3337C14.0672 18.3337 13.4011 18.0577 12.9099 17.5666C12.5911 17.2477 12.3629 16.8551 12.2421 16.4289H2.38091C1.98642 16.4289 1.66663 16.1091 1.66663 15.7146C1.66663 15.3201 1.98642 15.0003 2.38091 15.0003H12.2421C12.3629 14.5741 12.5911 14.1815 12.9099 13.8627ZM14.7619 14.5241C14.4461 14.5241 14.1433 14.6496 13.9201 14.8728C13.6968 15.0961 13.5714 15.3989 13.5714 15.7146C13.5714 16.0303 13.6968 16.3331 13.9201 16.5564C14.1433 16.7797 14.4461 16.9051 14.7619 16.9051C15.0776 16.9051 15.3804 16.7797 15.6037 16.5564C15.8269 16.3331 15.9523 16.0303 15.9523 15.7146C15.9523 15.3989 15.8269 15.0961 15.6037 14.8728C15.3804 14.6496 15.0776 14.5241 14.7619 14.5241Z" fill="#761022"/>
</svg>
