<svg width="21" height="21" viewBox="0 0 21 21" fill="none" xmlns="http://www.w3.org/2000/svg">
<path fill-rule="evenodd" clip-rule="evenodd" d="M11.8643 13.58C12.984 13.58 13.8954 14.4849 13.8954 15.5972V18.4579C13.8954 18.6969 14.087 18.8885 14.3325 18.8941H16.1051C17.502 18.8941 18.6375 17.7725 18.6375 16.3942V8.28083C18.631 7.80653 18.405 7.36013 18.0172 7.06345L11.8857 2.17349C11.0626 1.52155 9.9113 1.52155 9.08546 2.17535L2.99578 7.06159C2.59309 7.36757 2.3671 7.81397 2.36245 8.29664V16.3942C2.36245 17.7725 3.49798 18.8941 4.89485 18.8941H6.68418C6.93621 18.8941 7.14081 18.6941 7.14081 18.4486C7.14081 18.3946 7.14732 18.3407 7.15848 18.2896V15.5972C7.15848 14.4914 8.06431 13.5874 9.17567 13.58H11.8643ZM16.1051 20.2891H14.3158C13.2909 20.2649 12.5004 19.4604 12.5004 18.4579V15.5972C12.5004 15.254 12.2149 14.975 11.8643 14.975H9.18032C8.83715 14.9769 8.55349 15.2568 8.55349 15.5972V18.4486C8.55349 18.5183 8.54419 18.5853 8.52466 18.6485C8.42422 19.5692 7.63744 20.2891 6.68418 20.2891H4.89485C2.72887 20.2891 0.967438 18.5416 0.967438 16.3942V8.29013C0.976738 7.36571 1.40268 6.5194 2.13831 5.96233L8.2159 1.08445C9.55418 0.0242436 11.4188 0.0242436 12.7543 1.08259L18.8756 5.96512C19.5945 6.51289 20.0205 7.35734 20.0326 8.2706V16.3942C20.0326 18.5416 18.2711 20.2891 16.1051 20.2891Z" fill="black"/>
</svg>
