<svg width="20" height="21" viewBox="0 0 20 21" fill="none" xmlns="http://www.w3.org/2000/svg">
<path fill-rule="evenodd" clip-rule="evenodd" d="M19.0578 13.1224C19.4662 13.1531 19.7718 13.51 19.7411 13.9184L19.5532 16.3995C19.398 18.4464 17.6705 20.0493 15.6186 20.0493H4.14793C2.09607 20.0493 0.368544 18.4464 0.213295 16.3995L0.0254134 13.9184C-0.0052409 13.51 0.301303 13.1531 0.709698 13.1224C1.12007 13.1076 1.47408 13.3973 1.50572 13.8067L1.69261 16.2867C1.78952 17.5643 2.86737 18.566 4.14793 18.566H15.6186C16.8992 18.566 17.978 17.5643 18.0739 16.2867L18.2618 13.8067C18.2934 13.3973 18.6563 13.1066 19.0578 13.1224ZM11.1591 0.529297C12.6453 0.529297 13.8765 1.643 14.0619 3.07957L16.0095 3.08043C18.0821 3.08043 19.7671 4.77038 19.7671 6.84894V10.2496C19.7671 10.5136 19.6267 10.7569 19.4003 10.8894C16.9595 12.3188 13.8675 13.1525 10.6247 13.2637L10.6251 15.0423C10.6251 15.4516 10.2928 15.7839 9.88346 15.7839C9.47407 15.7839 9.14182 15.4516 9.14182 15.0423L9.14118 13.2639C5.90164 13.1537 2.80948 12.3198 0.366863 10.8894C0.139428 10.7569 0 10.5136 0 10.2496V6.83905C0 4.76642 1.68994 3.08043 3.76752 3.08043L5.70498 3.07957C5.89042 1.643 7.12166 0.529297 8.60784 0.529297H11.1591ZM16.0095 4.56371H3.76752C2.50772 4.56371 1.48328 5.5842 1.48328 6.83905V9.81747C3.83052 11.0928 6.78967 11.7918 9.86971 11.7932L9.88346 11.7919L9.89443 11.7923L10.3653 11.7874C13.2782 11.718 16.0571 11.0269 18.2838 9.81747V6.84894C18.2838 5.58815 17.2643 4.56371 16.0095 4.56371ZM11.1591 2.01257H8.60784C7.942 2.01257 7.37995 2.46574 7.21391 3.07982H12.553C12.387 2.46574 11.8249 2.01257 11.1591 2.01257Z" fill="black"/>
</svg>
