<svg width="16" height="20" viewBox="0 0 16 20" fill="none" xmlns="http://www.w3.org/2000/svg">
<path fill-rule="evenodd" clip-rule="evenodd" d="M2.6739 5.4089C2.67455 2.47668 5.05238 0.100586 7.98437 0.100586C10.917 0.100586 13.2939 2.47753 13.2939 5.41011C13.2939 8.3425 10.9171 10.7206 7.98437 10.7206H7.95199L7.94957 10.7206C5.02674 10.7107 2.66464 8.33218 2.6739 5.4089ZM2.6739 5.4089C2.6739 5.4085 2.6739 5.40809 2.6739 5.40769L3.38818 5.41011H2.6739C2.6739 5.40971 2.6739 5.4093 2.6739 5.4089ZM7.98437 1.52916C5.84057 1.52916 4.10247 3.2667 4.10247 5.41011V5.41253H4.10246C4.09523 7.54738 5.81992 9.2842 7.95333 9.29201H7.98437C10.1278 9.29201 11.8653 7.55391 11.8653 5.41011C11.8653 3.2665 10.128 1.52916 7.98437 1.52916ZM2.72172 13.2545C4.14592 12.777 6.03543 12.6323 7.98437 12.6323C9.94503 12.6323 11.8351 12.7826 13.2573 13.2663C13.9722 13.5094 14.621 13.8538 15.0973 14.353C15.59 14.8694 15.8682 15.5219 15.8682 16.2942C15.8682 17.068 15.5875 17.7201 15.092 18.2346C14.6134 18.7315 13.9622 19.0726 13.2466 19.3126C11.8227 19.7902 9.93339 19.9352 7.98437 19.9352C6.02379 19.9352 4.13349 19.7851 2.71102 19.3016C1.99603 19.0585 1.34708 18.7142 0.870684 18.2149C0.377814 17.6984 0.0996094 17.0458 0.0996094 16.2733C0.0996094 15.4992 0.380295 14.847 0.875984 14.3324C1.35472 13.8355 2.006 13.4944 2.72172 13.2545ZM1.90481 15.3235C1.66035 15.5773 1.52818 15.8763 1.52818 16.2733C1.52818 16.6717 1.66021 16.973 1.90422 17.2287C2.16469 17.5017 2.57926 17.7479 3.17082 17.949C4.36145 18.3538 6.05638 18.5066 7.98437 18.5066C9.90297 18.5066 11.5985 18.3586 12.7923 17.9582C13.3857 17.7592 13.8017 17.5149 14.0631 17.2436C14.3075 16.9898 14.4396 16.6909 14.4396 16.2942C14.4396 15.896 14.3076 15.5948 14.0637 15.3391C13.8033 15.0662 13.3888 14.8199 12.7974 14.6188C11.607 14.2139 9.91228 14.0609 7.98437 14.0609C6.06569 14.0609 4.36997 14.2086 3.17584 14.6089C2.58239 14.8079 2.16622 15.0522 1.90481 15.3235Z" fill="#B3BFD1"/>
</svg>
