<svg width="24" height="24" viewBox="0 0 24 24" fill="none" xmlns="http://www.w3.org/2000/svg">
<path d="M20.9376 11.9882C20.9376 16.8871 16.9257 20.8675 11.988 20.8675C10.54 20.8675 9.1631 20.5142 7.95241 19.9018C5.05626 18.4416 3.06219 15.4504 3.03845 12.0117V11.9882C3.03845 7.08926 7.05033 3.10889 11.988 3.10889C16.9495 3.10889 20.9376 7.08926 20.9376 11.9882Z" fill="#FCB436"/>
<path d="M12.2019 16.0392C11.8695 16.3219 11.7271 16.3454 11.6084 16.2277C11.5846 16.2041 11.5847 15.7095 11.5134 15.5211C11.276 15.0265 10.8013 14.5083 10.7775 14.4377C10.73 14.3435 10.3502 12.6006 10.1841 12.7654C10.0179 12.9303 9.80423 13.0481 9.73301 12.9774C9.6618 12.9068 9.82797 12.6477 9.99414 12.4593V12.4357L8.75971 11.682H8.73598C8.35616 12.2708 7.76268 13.001 7.21668 13.001C6.67069 13.001 6.52825 12.5299 6.52825 11.9882C6.52825 10.6222 5.48374 10.104 5.08018 10.104C4.98522 10.104 4.77158 10.1276 4.58167 10.1982C4.58167 10.2218 4.58167 10.2218 4.58167 10.2453H4.55793C4.51045 10.2453 4.48671 10.2689 4.46297 10.316C4.46297 10.3395 4.46297 10.3395 4.46297 10.3631C4.39175 10.3631 4.36801 10.4337 4.36801 10.4808C4.27305 10.4808 4.1781 10.5515 4.1781 10.6693C4.1781 11.2345 4.98522 11.7527 5.00896 12.8597C5.0327 14.1786 4.58167 14.7674 4.58167 16.3219C4.58167 16.5338 4.6054 16.7458 4.67662 16.9578C4.67662 16.9813 4.70036 17.0049 4.70036 17.0284C5.43627 18.1119 6.55199 19.2188 8.16624 19.9961C8.18998 19.9961 8.21372 20.0196 8.23746 20.0196C8.33242 20.0196 8.42737 20.0432 8.54606 20.0432C10.3265 20.0432 11.6796 18.1825 12.3443 17.7115C12.7241 17.4759 12.5342 15.7566 12.2019 16.0392ZM12.1544 16.3219C12.2256 16.2512 12.2968 16.1806 12.3918 16.1099H12.4155C12.463 16.1806 12.4867 16.2983 12.5105 16.4396C12.463 16.2748 12.2731 16.2041 12.1544 16.3219Z" fill="#771020"/>
<path d="M19.1335 5.36999C18.5163 4.71052 17.8279 4.14526 17.0445 3.69776C18.0178 2.56724 19.7982 2.49658 19.7982 2.49658C19.7982 2.49658 20.0593 4.21591 19.1335 5.36999Z" fill="#E22E31"/>
<path d="M23.81 8.10209C23.81 8.10209 23.0504 9.75077 21.626 10.1983C21.626 10.1983 21.626 10.1983 21.6023 10.1983C21.4361 9.30327 21.1512 8.45538 20.7477 7.67815C20.7477 7.67815 20.7714 7.67815 20.7952 7.6546C22.2432 7.2071 23.81 8.10209 23.81 8.10209Z" fill="#E22E31"/>
<path d="M23.9998 15.0266C23.9998 15.0266 22.5043 16.0158 21.0562 15.6626C21.3886 14.8618 21.6259 13.9903 21.7209 13.0718C23.1452 13.4486 23.9998 15.0266 23.9998 15.0266Z" fill="#E22E31"/>
<path d="M20.5815 20.891C20.5815 20.891 18.7773 20.9381 17.7328 19.8782C17.7328 19.8782 17.7328 19.8782 17.7328 19.8547C18.4687 19.3365 19.1096 18.7006 19.6794 18.0176C20.7002 19.101 20.5815 20.891 20.5815 20.891Z" fill="#E22E31"/>
<path d="M14.6229 24C14.6229 24 13.0799 23.105 12.7476 21.6683C13.6734 21.5976 14.5517 21.4092 15.3588 21.103C15.6674 22.5397 14.6229 24 14.6229 24Z" fill="#E22E31"/>
<path d="M10.0651 21.5034C9.51913 22.8459 7.90489 23.4818 7.90489 23.4818C7.90489 23.4818 7.1215 21.998 7.52507 20.6084C7.54881 20.6084 7.5488 20.632 7.57254 20.632C8.35593 21.0323 9.18679 21.315 10.0651 21.5034Z" fill="#E22E31"/>
<path d="M5.27007 19.0305C4.08312 19.7842 2.46887 19.5251 2.46887 19.5251C2.46887 19.5251 2.58757 17.9235 3.58461 16.9814C4.05938 17.7351 4.62912 18.4181 5.27007 19.0305Z" fill="#E22E31"/>
<path d="M2.51633 14.3668C1.16321 14.3432 0 13.3069 0 13.3069C0 13.3069 0.902079 12.0822 2.23146 11.7524C2.23146 11.8231 2.23146 11.9173 2.23146 11.988V12.0115C2.23146 12.8359 2.32642 13.6131 2.51633 14.3668Z" fill="#E22E31"/>
<path d="M3.89295 6.57131C3.39443 7.27789 3.01461 8.07868 2.72974 8.90302C1.63775 8.14933 1.21045 6.71263 1.21045 6.71263C1.21045 6.71263 2.61104 6.17092 3.89295 6.57131Z" fill="#E22E31"/>
<path d="M8.1186 3.08543C7.31148 3.43871 6.55183 3.88621 5.8634 4.42792C5.34115 3.22674 5.74471 1.79004 5.74471 1.79004C5.74471 1.79004 7.264 2.07267 8.1186 3.08543Z" fill="#E22E31"/>
<path d="M13.5786 2.42591C13.0801 2.35525 12.5341 2.30815 12.0119 2.30815C11.6558 2.30815 11.2759 2.3317 10.9436 2.35525C11.1335 1.01276 12.273 0 12.273 0C12.273 0 13.4125 1.05986 13.5786 2.42591Z" fill="#E22E31"/>
<path d="M17.6143 7.91373C17.6143 7.93729 17.6143 7.96084 17.6143 8.00794V8.0786C17.6143 8.21992 17.5906 8.33768 17.5668 8.45544C17.5431 8.64386 17.4719 8.80873 17.4006 8.99715C17.2345 9.37399 16.9971 9.70372 16.7122 9.98635L16.6647 10.0335C16.1662 10.4574 15.5253 10.7165 14.8131 10.7165C14.1009 10.7165 13.46 10.4574 12.9615 10.0335C12.8428 9.9157 12.7241 9.79794 12.6054 9.68017C12.4867 9.53886 12.3917 9.37399 12.2968 9.20912C12.2018 9.0207 12.1306 8.83228 12.0831 8.64386C12.0356 8.47899 12.0119 8.29057 11.9882 8.10215C11.9882 8.05505 11.9882 8.00794 11.9882 7.96084C11.9882 7.89018 11.9882 7.84307 11.9882 7.77242C12.0119 7.60755 12.0356 7.44268 12.0594 7.27781C12.1306 7.01874 12.2256 6.75966 12.368 6.54769C12.5579 6.21795 12.8428 5.93532 13.1514 5.6998C13.1751 5.67624 13.1988 5.67624 13.2226 5.65269C13.6736 5.34651 14.2196 5.18164 14.7894 5.18164C15.3116 5.18164 15.7864 5.32296 16.2137 5.55848C16.3324 5.62914 16.4748 5.72335 16.5698 5.81756C16.8784 6.05308 17.1158 6.35927 17.2819 6.71255C17.3057 6.75966 17.3294 6.80677 17.3532 6.85387C17.5431 7.16005 17.6143 7.53689 17.6143 7.91373Z" fill="#FEF7CD"/>
<path d="M17.3766 6.80656L12.0591 7.25406C12.1303 6.99498 12.2253 6.7359 12.3677 6.52393L17.3054 6.66524C17.3291 6.71235 17.3766 6.75945 17.3766 6.80656Z" fill="#FCB436"/>
<path d="M17.614 8.00761V8.07827H12.0116C12.0116 8.03117 12.0116 7.98406 12.0116 7.93696C12.0116 7.8663 12.0116 7.81919 12.0116 7.74854L17.614 8.00761Z" fill="#FCB436"/>
<path d="M17.5666 8.45508C17.5428 8.6435 17.4716 8.80837 17.4004 8.99679C16.166 9.04389 13.5547 9.16165 12.2965 9.18521C12.2016 8.99679 12.1304 8.80837 12.0829 8.61995L17.5666 8.45508Z" fill="#FCB436"/>
<path d="M16.7119 9.98636L16.6645 10.0335H12.9612C12.8425 9.9157 12.7238 9.79794 12.6051 9.68018C13.5309 9.70373 15.7149 9.89215 16.7119 9.98636Z" fill="#FCB436"/>
<path d="M16.5933 5.77031L13.1511 5.65255C13.1749 5.62899 13.1986 5.629 13.2223 5.60544L16.2135 5.51123C16.3559 5.60544 16.4746 5.6761 16.5933 5.77031Z" fill="#FCB436"/>
<path d="M13.982 17.7113C13.9583 17.6407 14.0058 17.5936 14.0532 17.57C15.1215 17.2403 16.3322 16.0391 16.5933 15.0263C16.617 14.9557 16.6645 14.9321 16.7357 14.9321C16.807 14.9557 16.8307 15.0028 16.8307 15.0734C16.5458 16.1569 15.2877 17.4287 14.1482 17.7584H14.1245C14.0295 17.8055 13.982 17.782 13.982 17.7113Z" fill="#E22E31"/>
<path d="M13.4122 19.1481C13.3884 19.0775 13.4359 19.0304 13.5071 19.0068C14.433 18.7949 15.5012 18.1118 16.4508 17.1226C17.3291 16.2276 17.8988 15.2384 17.9463 14.6261C17.9463 14.5554 17.9938 14.5083 18.065 14.5083C18.1362 14.5083 18.1837 14.5554 18.1837 14.6261C18.1362 15.3091 17.5428 16.3218 16.6169 17.2639C15.6199 18.2767 14.5042 19.0068 13.5546 19.2188H13.5309C13.4834 19.2424 13.4359 19.1952 13.4122 19.1481Z" fill="#E22E31"/>
<path d="M8.56962 9.27948C8.4984 9.25593 8.47467 9.20882 8.4984 9.13817C8.68832 8.45514 9.4717 7.51304 10.2313 7.32462C10.3026 7.30107 10.35 7.34817 10.3738 7.39528C10.3975 7.46594 10.35 7.51304 10.3026 7.5366C9.63787 7.70146 8.90197 8.57291 8.73579 9.18527C8.71206 9.23238 8.66458 9.27948 8.6171 9.27948C8.59336 9.27948 8.59336 9.27948 8.56962 9.27948Z" fill="#E22E31"/>
<path d="M7.12174 9.49152C7.05053 9.46796 7.02679 9.42086 7.05053 9.3502C7.50157 7.56021 9.18703 6.21772 10.1841 6.0293C10.2553 6.0293 10.3028 6.05285 10.3265 6.12351C10.3265 6.19416 10.3028 6.24127 10.2315 6.26482C9.30573 6.42969 7.71522 7.72508 7.28792 9.42086C7.26418 9.46796 7.2167 9.51507 7.16922 9.51507C7.14548 9.49151 7.14548 9.49152 7.12174 9.49152Z" fill="#E22E31"/>
<path d="M12.3204 17.7588C12.724 17.4761 13.9822 16.3221 14.3145 15.9923C14.5281 15.7804 15.4065 15.0031 15.0979 14.5556C14.7893 14.1081 14.3382 14.1081 13.8397 14.5085C13.3412 14.9089 12.5578 15.7333 12.2255 16.0394" fill="#771020"/>
<path d="M11.6083 16.2275C11.4896 16.1098 12.5816 15.097 13.0801 14.626C13.6973 14.0136 14.3383 13.3777 14.908 12.7418C15.359 12.2472 15.5964 11.6348 15.1929 11.3522C14.7893 11.0696 14.2908 11.2815 13.6736 11.8468C13.0563 12.412 11.9881 13.6368 11.6083 14.0607C11.086 14.626 10.8249 14.5553 10.8011 14.4611" fill="#771020"/>
<path d="M8.87846 12.3887L10.0179 12.4594C10.9912 11.3995 11.3948 10.8107 11.8933 10.1512C12.6767 9.13846 12.558 8.64386 12.2257 8.40833C11.8933 8.17281 11.3948 8.17281 11.015 8.69096C10.6351 9.23267 9.13959 11.0933 8.75977 11.6586L8.87846 12.3887Z" fill="#771020"/>
<path d="M10.7774 14.4612C10.7299 14.367 12.2492 12.7183 12.4391 12.5534C12.629 12.365 14.4332 10.2924 14.5756 10.0804C14.718 9.86844 14.9792 9.37384 14.4806 9.02056C13.5311 8.36108 12.7477 9.8449 12.1305 10.5279C11.7981 10.9048 10.3263 12.6241 10.1602 12.789" fill="#771020"/>
<path d="M14.9079 12.7421C15.2403 12.3652 15.4539 11.9177 15.3827 11.6115C15.1928 11.5409 13.626 13.7313 12.0118 15.0738C11.7269 15.3093 11.4658 15.9687 11.6082 16.2043C11.6082 15.9923 12.629 15.0738 13.08 14.6263C13.6972 14.0139 14.3382 13.378 14.9079 12.7421Z" fill="url(#paint0_linear_153_3873)"/>
<path d="M11.8695 10.1746C12.6529 9.16189 12.5342 8.66728 12.2018 8.43176L12.1781 8.4082C11.7745 8.8557 11.6321 9.65648 11.0861 10.316C10.3739 11.1403 9.13949 12.5299 9.70922 13.0009C9.66175 12.9303 9.82792 12.6712 9.99409 12.4828C10.9911 11.3994 11.3947 10.8106 11.8695 10.1746Z" fill="url(#paint1_linear_153_3873)"/>
<path d="M14.5756 10.0807C14.6943 9.89224 14.908 9.49184 14.6469 9.16211C13.911 9.5625 13.7685 10.2691 13.0089 11.0699C12.1305 11.9884 10.3264 13.8255 10.7774 14.4614C10.7299 14.3672 12.2492 12.7185 12.4391 12.5537C12.6053 12.3652 14.4332 10.2691 14.5756 10.0807Z" fill="url(#paint2_linear_153_3873)"/>
<path d="M11.1573 14.4141C10.9911 14.5083 10.8724 14.5083 10.825 14.4847C10.8962 14.5554 11.0149 14.5318 11.1573 14.4141Z" fill="url(#paint3_linear_153_3873)"/>
<path d="M6.05337 12.106C6.17207 12.789 6.93172 13.7782 7.88127 12.7183C7.66762 12.8832 7.43023 13.001 7.21658 13.001C6.67058 13.001 6.52815 12.5299 6.52815 11.9882C6.52815 10.6222 5.48364 10.104 5.08007 10.104C4.98512 10.104 4.77147 10.1276 4.58156 10.1982C4.51034 10.2689 4.58156 10.2218 4.96138 10.2924C6.10085 10.528 5.93468 11.4229 6.05337 12.106Z" fill="#5E081B"/>
<path opacity="0.5" d="M11.6796 9.98613C11.1574 10.8105 9.59058 11.8939 9.73302 13.0009C9.6618 12.9302 9.82797 12.6711 10.0179 12.4591C10.9912 11.3993 11.3947 10.8105 11.8933 10.151C12.558 9.25601 12.5817 8.78496 12.3443 8.52588C12.1544 8.92627 12.0832 9.32666 11.6796 9.98613Z" fill="url(#paint4_linear_153_3873)"/>
<path d="M14.5755 10.0804C14.6942 9.91556 14.9078 9.46807 14.5992 9.51517C14.4805 9.53872 14.3618 9.60938 14.3143 9.72714C13.7209 10.8812 12.249 12.2944 11.1808 13.3542C10.6585 13.8724 10.4449 14.2257 10.7772 14.4612C10.7297 14.367 12.249 12.7183 12.439 12.5534C12.6051 12.365 14.433 10.2689 14.5755 10.0804Z" fill="#5E081B"/>
<path d="M15.3828 11.6113C14.1009 13.6133 10.9436 15.6624 11.6083 16.2276C11.4896 16.1099 12.5816 15.0971 13.0801 14.6261C13.6974 14.0137 14.3383 13.3778 14.908 12.7419C15.2404 12.365 15.454 11.9411 15.3828 11.6113Z" fill="#5E081B"/>
<path opacity="0.5" d="M13.6971 14.9322C14.3143 14.4611 14.1718 14.414 14.4567 14.2256C14.2668 14.2491 14.0532 14.3434 13.8395 14.5082C13.341 14.9086 12.5576 15.7329 12.2253 16.0391C11.9166 16.2982 11.7742 16.3453 11.6555 16.2511C11.6555 16.2747 11.703 16.3218 11.7742 16.3453C12.1778 16.5102 13.3647 15.1912 13.6971 14.9322Z" fill="url(#paint5_radial_153_3873)"/>
<path d="M14.9318 11.2345C14.5757 11.1638 14.1721 11.3758 13.6499 11.8468C13.0327 12.4121 11.9644 13.6368 11.5846 14.0608C11.181 14.4847 10.9436 14.5554 10.825 14.5083C11.2048 14.7438 12.0831 13.8724 12.5342 13.3307C12.9615 12.8125 13.911 11.5642 14.9318 11.2345Z" fill="#5E081B"/>
<path d="M13.6735 8.92627C13.08 9.18535 12.5815 10.0568 12.1542 10.5278C11.8219 10.9047 10.3501 12.624 10.1839 12.7889C10.0415 12.9302 9.85155 13.048 9.75659 13.0244C10.3026 13.2835 11.3471 11.7761 12.0593 10.9989C12.6527 10.363 13.08 9.39732 13.6735 8.92627Z" fill="#5E081B"/>
<path d="M8.99695 11.7764C9.28182 11.3525 10.0889 10.1042 10.7062 9.39764C11.086 8.97369 11.1809 8.62041 11.3708 8.36133C11.2522 8.43199 11.1097 8.54975 11.0148 8.71462C10.6349 9.25632 9.13939 11.117 8.75956 11.6822C8.54591 12.0355 8.21357 12.4359 7.88123 12.7185C8.26105 13.1189 8.71208 12.2004 8.99695 11.7764Z" fill="#5E081B"/>
<path d="M6.006 18.5831C6.21965 18.2298 6.52825 18.0649 6.90807 18.324C6.67069 18.1121 6.48077 17.9236 6.29086 17.8059C5.48374 17.3348 4.98522 15.8039 5.38878 14.7205C5.79235 13.6135 5.64991 12.5301 5.08017 11.8235C4.55792 11.1641 4.20184 10.7872 4.34427 10.3633C4.22558 10.4575 4.13062 10.5753 4.13062 10.7401C4.13062 11.3054 4.93774 11.8235 4.96148 12.9305C4.98522 14.2494 4.53418 14.8383 4.53418 16.3927C4.53418 16.6047 4.58166 16.8402 4.65287 17.0757C5.05644 17.6175 5.48374 18.1356 6.006 18.5831Z" fill="#5E081B"/>
<path d="M6.00562 18.5828C6.59909 19.1009 7.26378 19.572 7.97594 19.9253C8.09464 19.9724 8.18959 20.0195 8.30829 20.0901C8.33203 20.0901 8.33203 20.0901 8.35577 20.0901C8.40325 20.0901 8.45073 20.0901 8.47446 20.0901C8.4982 20.0901 8.52194 20.0901 8.54568 20.0901C8.64063 20.0901 8.73559 20.0901 8.85429 20.0666C8.87803 20.0666 8.90176 20.0666 8.90176 20.0666C8.99672 20.043 9.09168 20.043 9.18663 20.0195H9.21037C9.30533 19.9959 9.40028 19.9724 9.49524 19.9253H9.51898C9.61393 19.9017 9.70889 19.8546 9.80385 19.8075H9.82758C10.0887 19.6897 10.3498 19.5249 10.5872 19.36C10.611 19.3365 10.6347 19.3129 10.6584 19.3129C10.7297 19.2658 10.7771 19.2187 10.8484 19.1716C10.8721 19.148 10.8721 19.148 10.8958 19.1245C10.967 19.0538 11.0383 19.0067 11.1095 18.9361C11.5131 18.5828 11.8454 18.253 12.1065 18.0175L12.1303 17.994C12.1303 17.994 12.1303 17.994 12.154 17.994C12.1777 17.9704 12.1777 17.9704 12.2015 17.9469C12.2252 17.9233 12.2252 17.9233 12.249 17.8998C12.2727 17.8762 12.2964 17.8527 12.3439 17.8291L12.3677 17.8055C12.7712 17.5229 14.0294 16.3688 14.3617 16.0391C14.4092 15.992 14.5042 15.9213 14.5991 15.8036C14.6228 15.78 14.6466 15.7565 14.6466 15.7565C14.6703 15.7329 14.6703 15.7329 14.6941 15.7094C14.7178 15.6858 14.7178 15.6858 14.7415 15.6623C14.7653 15.6387 14.8128 15.5916 14.8365 15.5681C14.8602 15.5445 14.8602 15.5445 14.884 15.521C14.9077 15.4974 14.9315 15.4738 14.9552 15.4503C14.9789 15.4267 14.9789 15.4267 15.0027 15.4032C15.0264 15.3561 15.0501 15.3325 15.0739 15.2854C15.0739 15.2619 15.0976 15.2619 15.0976 15.2383C15.1214 15.2148 15.1214 15.1912 15.1451 15.1441C15.1451 15.1441 15.1451 15.1206 15.1688 15.1206C14.8128 14.9792 14.5279 15.4267 14.4092 15.5445C13.8632 16.1333 13.1273 16.8634 11.8217 17.6407C11.6317 17.7584 11.4418 17.8998 11.2757 18.0882C8.9255 19.9253 7.73855 19.0774 6.97891 18.3944C6.50413 18.0646 6.21927 18.2295 6.00562 18.5828Z" fill="#5E081B"/>
<path d="M4.98505 12.9069C4.96131 11.7999 4.15419 11.2582 4.15419 10.7165C4.15419 10.5516 4.24914 10.4339 4.36783 10.3397C4.36783 10.3397 4.3441 10.3397 4.3441 10.3632L4.32036 10.3868C4.32036 10.4103 4.32036 10.4339 4.32036 10.4339C4.32036 10.4574 4.32036 10.481 4.32036 10.5045V10.5281C4.3441 10.5987 4.41532 10.6223 4.4628 10.5752C4.48654 10.5752 4.51027 10.5516 4.51027 10.5281C4.53401 10.5045 4.53401 10.481 4.55775 10.4574L4.58149 10.4339C4.58149 10.4339 4.58149 10.4103 4.60522 10.4103C4.62896 10.4103 4.62897 10.3868 4.6527 10.3868C4.67644 10.3632 4.70019 10.3397 4.70019 10.2926C4.70019 10.269 4.67644 10.2219 4.6527 10.1984C4.62897 10.1984 4.62896 10.1748 4.60522 10.1748C4.60522 10.1748 4.60523 10.1748 4.58149 10.1748C4.58149 10.1748 4.58149 10.1748 4.55775 10.1748C4.55775 10.1748 4.53401 10.1748 4.53401 10.1984C4.32036 10.2926 4.15419 10.4339 4.15419 10.6694C4.13045 11.2818 4.96131 11.7999 4.98505 12.9069C5.00879 14.2258 4.55775 14.8146 4.55775 16.3691C4.55775 16.5811 4.60523 16.8166 4.6527 17.0286C4.58149 16.7931 4.55775 16.5811 4.55775 16.3456C4.55775 14.8146 5.00879 14.2258 4.98505 12.9069Z" fill="#771020"/>
<path d="M8.16614 20.0669C8.28483 20.0904 8.40353 20.0904 8.49849 20.0904C8.40353 20.0904 8.28483 20.0669 8.16614 20.0669Z" fill="#771020"/>
<defs>
<linearGradient id="paint0_linear_153_3873" x1="12.669" y1="13.1447" x2="13.8775" y2="14.2923" gradientUnits="userSpaceOnUse">
<stop stop-color="#6B5143" stop-opacity="0"/>
<stop offset="1" stop-color="#483327"/>
</linearGradient>
<linearGradient id="paint1_linear_153_3873" x1="10.275" y1="10.0909" x2="12.0942" y2="11.7466" gradientUnits="userSpaceOnUse">
<stop stop-color="#6B5143" stop-opacity="0"/>
<stop offset="1" stop-color="#483327"/>
</linearGradient>
<linearGradient id="paint2_linear_153_3873" x1="11.9602" y1="11.2605" x2="14.4655" y2="13.1068" gradientUnits="userSpaceOnUse">
<stop stop-color="#6B5143" stop-opacity="0"/>
<stop offset="1" stop-color="#483327"/>
</linearGradient>
<linearGradient id="paint3_linear_153_3873" x1="10.0839" y1="13.8066" x2="12.589" y2="15.6531" gradientUnits="userSpaceOnUse">
<stop stop-color="#6B5143" stop-opacity="0"/>
<stop offset="1" stop-color="#483327"/>
</linearGradient>
<linearGradient id="paint4_linear_153_3873" x1="9.93988" y1="9.76842" x2="11.4936" y2="11.2197" gradientUnits="userSpaceOnUse">
<stop offset="0.3072" stop-color="#483327" stop-opacity="0"/>
<stop offset="1" stop-color="#483327"/>
</linearGradient>
<radialGradient id="paint5_radial_153_3873" cx="0" cy="0" r="1" gradientUnits="userSpaceOnUse" gradientTransform="translate(12.1018 12.7313) rotate(180) scale(2.6625 2.64133)">
<stop stop-color="#6B5143" stop-opacity="0"/>
<stop offset="1" stop-color="#5B463A"/>
</radialGradient>
</defs>
</svg>
